<svg width="10" height="10" viewBox="0 0 10 10" fill="none" xmlns="http://www.w3.org/2000/svg">
<path d="M5.65796 3.39804H6.97357L5.65796 4.65385H6.97357M7.63138 0.886414H9.38553L7.63138 2.56083H9.38553" stroke="#595959" stroke-linecap="round" stroke-linejoin="round"/>
<path d="M2.97238 8.42672C2.935 8.40605 2.89373 8.39261 2.85091 8.38717C2.80809 8.38173 2.76457 8.38439 2.72283 8.395C2.68109 8.40561 2.64195 8.42397 2.60764 8.44902C2.57333 8.47407 2.54453 8.50533 2.52288 8.541C2.50122 8.57668 2.48714 8.61608 2.48144 8.65695C2.47574 8.69782 2.47852 8.73936 2.48964 8.77921C2.50076 8.81905 2.51999 8.85641 2.54623 8.88916C2.57248 8.92191 2.60522 8.9494 2.6426 8.97007L2.97238 8.42672ZM0.91695 7.32245C0.937702 7.35964 0.966087 7.39247 1.00041 7.41898C1.03474 7.44548 1.07431 7.46512 1.11675 7.47671C1.1592 7.48831 1.20366 7.49163 1.24748 7.48647C1.2913 7.48132 1.33358 7.4678 1.37181 7.44672C1.41004 7.42563 1.44342 7.39742 1.46999 7.36375C1.49655 7.33009 1.51573 7.29166 1.52641 7.25077C1.53708 7.20987 1.53902 7.16735 1.5321 7.12572C1.52519 7.0841 1.50957 7.04423 1.48617 7.00849L0.91695 7.32245ZM9.05665 5.07245C9.05665 6.09939 8.62928 7.08427 7.86854 7.81043C7.1078 8.53659 6.07602 8.94454 5.00018 8.94454V9.57244C7.60378 9.57244 9.71446 7.5577 9.71446 5.07245H9.05665ZM0.9437 5.07245C0.9437 4.0455 1.37108 3.06062 2.13181 2.33446C2.89255 1.60831 3.92433 1.20036 5.00018 1.20036V0.572449C2.39658 0.572449 0.285894 2.58719 0.285894 5.07245H0.9437ZM6.53506 6.01431C5.86629 6.01431 5.22491 5.76072 4.75202 5.30932C4.27913 4.85792 4.01347 4.2457 4.01347 3.60733H3.35566C3.35566 4.41223 3.69063 5.18417 4.28688 5.75332C4.88314 6.32247 5.69183 6.64221 6.53506 6.64221V6.01431ZM8.69486 4.85017C8.47059 5.20553 8.15385 5.49948 7.7754 5.70346C7.39696 5.90745 6.96967 6.01453 6.53506 6.01431V6.64221C7.08299 6.64249 7.62168 6.50754 8.09885 6.25046C8.57602 5.99338 8.97546 5.62291 9.25838 5.175L8.69486 4.85017ZM4.01347 3.60733C4.01328 3.19248 4.12548 2.78463 4.33917 2.4234C4.55286 2.06216 4.86079 1.75981 5.23304 1.5457L4.89274 1.00822C4.42354 1.27821 4.03544 1.65942 3.76612 2.11482C3.4968 2.57023 3.3554 3.08437 3.35566 3.60733H4.01347ZM5.00018 1.20036C4.9557 1.19935 4.91345 1.1816 4.88265 1.15096C4.86382 1.13348 4.85123 1.11077 4.84669 1.08608C4.84493 1.0731 4.84581 1.03543 4.89274 1.00822L5.23304 1.5457C5.45363 1.41845 5.52467 1.18529 5.49879 1.00194C5.4716 0.811472 5.31461 0.572449 5.00018 0.572449V1.20036ZM9.25838 5.175C9.22944 5.2198 9.18997 5.22063 9.17637 5.21896C9.1505 5.21462 9.12672 5.20261 9.1084 5.18463C9.0763 5.15523 9.0577 5.1149 9.05665 5.07245H9.71446C9.71446 4.77231 9.46406 4.62245 9.26452 4.59649C9.07244 4.5718 8.82817 4.63961 8.69486 4.85017L9.25838 5.175ZM5.00018 8.94454C4.28823 8.94566 3.58864 8.76702 2.97238 8.42672L2.6426 8.97007C3.35907 9.36577 4.17242 9.57358 5.00018 9.57244V8.94454ZM1.48617 7.00849C1.1296 6.42012 0.942445 5.75217 0.9437 5.07245H0.285894C0.284694 5.86244 0.502407 6.63869 0.91695 7.32245L1.48617 7.00849Z" fill="#595959"/>
</svg>
