<svg width="14" height="14" viewBox="0 0 14 14" fill="none" xmlns="http://www.w3.org/2000/svg">
<path d="M3.55973 5.05267H0.960555C0.874387 5.05267 0.791748 5.0869 0.730818 5.14783C0.669888 5.20876 0.635658 5.2914 0.635658 5.37757V13.1751C0.635658 13.2613 0.669888 13.3439 0.730818 13.4048C0.791748 13.4658 0.874387 13.5 0.960555 13.5H3.55973C3.6459 13.5 3.72854 13.4658 3.78947 13.4048C3.8504 13.3439 3.88463 13.2613 3.88463 13.1751V5.37757C3.88463 5.2914 3.8504 5.20876 3.78947 5.14783C3.72854 5.0869 3.6459 5.05267 3.55973 5.05267ZM3.23484 12.8502H1.28545V5.70246H3.23484V12.8502ZM10.3826 5.05267C9.67755 5.05267 8.99202 5.2853 8.43319 5.71481V5.37757C8.43319 5.2914 8.39896 5.20876 8.33803 5.14783C8.2771 5.0869 8.19446 5.05267 8.1083 5.05267H5.50912C5.42295 5.05267 5.34031 5.0869 5.27938 5.14783C5.21845 5.20876 5.18422 5.2914 5.18422 5.37757V13.1751C5.18422 13.2613 5.21845 13.3439 5.27938 13.4048C5.34031 13.4658 5.42295 13.5 5.50912 13.5H8.1083C8.19446 13.5 8.2771 13.4658 8.33803 13.4048C8.39896 13.3439 8.43319 13.2613 8.43319 13.1751V9.60123C8.43319 9.34273 8.53588 9.09481 8.71867 8.91202C8.90146 8.72923 9.14938 8.62654 9.40788 8.62654C9.66639 8.62654 9.91431 8.72923 10.0971 8.91202C10.2799 9.09481 10.3826 9.34273 10.3826 9.60123V13.1751C10.3826 13.2613 10.4168 13.3439 10.4777 13.4048C10.5387 13.4658 10.6213 13.5 10.7075 13.5H13.3067C13.3928 13.5 13.4755 13.4658 13.5364 13.4048C13.5973 13.3439 13.6315 13.2613 13.6315 13.1751V8.30164C13.6305 7.44028 13.2879 6.61449 12.6788 6.00541C12.0697 5.39633 11.2439 5.0537 10.3826 5.05267ZM12.9818 12.8502H11.0324V9.60123C11.0324 9.17039 10.8612 8.7572 10.5566 8.45255C10.2519 8.1479 9.83873 7.97675 9.40788 7.97675C8.97704 7.97675 8.56385 8.1479 8.2592 8.45255C7.95455 8.7572 7.7834 9.17039 7.7834 9.60123V12.8502H5.83401V5.70246H7.7834V6.48417C7.78338 6.55146 7.80426 6.61709 7.84315 6.67201C7.88204 6.72692 7.93703 6.76841 8.00051 6.79073C8.06399 6.81306 8.13283 6.81512 8.19754 6.79664C8.26224 6.77816 8.31961 6.74004 8.36172 6.68755C8.6954 6.26459 9.15276 5.95629 9.67002 5.80566C10.1873 5.65503 10.7387 5.66958 11.2473 5.84726C11.7559 6.02495 12.1963 6.35693 12.5073 6.7969C12.8182 7.23687 12.9841 7.7629 12.9818 8.30164V12.8502ZM2.49927 0.505407C2.42292 0.500026 2.3463 0.499592 2.26989 0.504107C2.02672 0.487561 1.78274 0.521121 1.55306 0.602707C1.32338 0.684293 1.1129 0.812168 0.934662 0.97841C0.756418 1.14465 0.614207 1.34572 0.516836 1.56916C0.419465 1.79261 0.369008 2.03366 0.368592 2.2774C0.366574 2.51859 0.414126 2.75762 0.508299 2.97967C0.602472 3.20173 0.741259 3.40207 0.916052 3.56827C1.09085 3.73447 1.29792 3.863 1.52443 3.94587C1.75095 4.02874 1.99207 4.0642 2.23285 4.05004H2.25105C2.48379 4.06633 2.71747 4.03663 2.93873 3.96262C3.15999 3.88861 3.36451 3.77175 3.54061 3.6187C3.71671 3.46565 3.86094 3.27941 3.96507 3.07062C4.06919 2.86183 4.13117 2.63458 4.14747 2.40183C4.16377 2.16909 4.13407 1.93541 4.06006 1.71415C3.98605 1.49289 3.86918 1.28836 3.71613 1.11227C3.56308 0.936166 3.37685 0.791936 3.16806 0.687811C2.95927 0.583686 2.73201 0.521705 2.49927 0.505407ZM2.47653 3.40219C2.40149 3.40901 2.32596 3.40836 2.25105 3.40024H2.23285C2.07647 3.412 1.91935 3.39102 1.77152 3.33863C1.6237 3.28625 1.48843 3.20362 1.37433 3.09602C1.26024 2.98842 1.16984 2.85821 1.1089 2.71371C1.04796 2.56921 1.01782 2.41358 1.0204 2.25678C1.02299 2.09997 1.05824 1.94542 1.12391 1.80301C1.18958 1.66059 1.28423 1.53343 1.40181 1.42965C1.51939 1.32587 1.65731 1.24775 1.80678 1.20027C1.95625 1.15279 2.11398 1.137 2.26989 1.1539C2.56803 1.1265 2.86485 1.21866 3.09504 1.4101C3.32524 1.60154 3.46995 1.87659 3.49735 2.17473C3.52475 2.47287 3.4326 2.76969 3.24115 2.99988C3.04971 3.23007 2.77467 3.37479 2.47653 3.40219Z" fill="#949494" fill-opacity="0.52"/>
</svg>
