<svg width="14" height="8" viewBox="0 0 14 8" fill="none" xmlns="http://www.w3.org/2000/svg">
<path d="M13.3536 4.38981C13.5488 4.19455 13.5488 3.87796 13.3536 3.6827L10.1716 0.500721C9.97631 0.305459 9.65973 0.305459 9.46447 0.500721C9.2692 0.695983 9.2692 1.01257 9.46447 1.20783L12.2929 4.03625L9.46447 6.86468C9.2692 7.05994 9.2692 7.37653 9.46447 7.57179C9.65973 7.76705 9.97631 7.76705 10.1716 7.57179L13.3536 4.38981ZM1 3.53625C0.723858 3.53625 0.5 3.76011 0.5 4.03625C0.5 4.3124 0.723858 4.53625 1 4.53625V3.53625ZM13 3.53625L1 3.53625V4.53625L13 4.53625V3.53625Z" fill="black"/>
</svg>
