<svg width="14" height="13" viewBox="0 0 14 13" fill="none" xmlns="http://www.w3.org/2000/svg">
<path d="M7.33871 10.8153C7.20381 10.8153 7.08631 10.7652 6.98623 10.6651C6.88614 10.5651 6.8361 10.4476 6.8361 10.3127V7.80287C6.8361 7.66797 6.88614 7.55047 6.98623 7.45039C7.08631 7.3503 7.20381 7.30026 7.33871 7.30026H8.87004C9.00494 7.30026 9.12243 7.3503 9.22252 7.45039C9.32261 7.55047 9.37265 7.66797 9.37265 7.80287V10.3133C9.37265 10.4482 9.32261 10.5657 9.22252 10.6658C9.12243 10.7659 9.00494 10.8157 8.87004 10.8153H7.33871ZM7.41377 10.2376H8.79497V7.87793H7.41377V10.2376ZM10.3511 12.5724V11.0287C10.3511 10.8855 10.399 10.7661 10.4947 10.6704C10.5904 10.5746 10.7101 10.5268 10.8537 10.5268H12.3348V9.63511H10.3511V9.05809H12.4099C12.553 9.05809 12.6727 9.10596 12.7689 9.20169C12.8646 9.29743 12.9125 9.41688 12.9125 9.56005V10.6018C12.9125 10.745 12.8646 10.8644 12.7689 10.9602C12.6727 11.0559 12.553 11.1038 12.4099 11.1038H10.9288V11.9954H12.9125V12.5724H10.3511ZM5.27996 12.1005C4.0589 12.007 3.05498 11.5189 2.26821 10.6364C1.48101 9.75391 1.0874 8.68211 1.0874 7.42101C1.0874 6.48368 1.46556 5.4469 2.22187 4.3107C2.97818 3.17449 4.12309 1.92841 5.65659 0.572449C6.74972 1.53154 7.64658 2.44625 8.34719 3.31657C9.0478 4.1869 9.54846 4.99608 9.84915 5.74412H9.15986C8.87047 5.11749 8.43466 4.44538 7.85242 3.7278C7.26974 3.01066 6.53779 2.25086 5.65659 1.44843C4.36199 2.63424 3.38571 3.72758 2.72774 4.72845C2.06978 5.72932 1.74058 6.62684 1.74014 7.42101C1.74014 8.51588 2.06934 9.43668 2.72774 10.1834C3.38614 10.9302 4.23688 11.3505 5.27996 11.4445V12.1005Z" fill="#595959" stroke="#595959" stroke-width="0.3"/>
</svg>
