<svg width="12" height="13" viewBox="0 0 12 13" fill="none" xmlns="http://www.w3.org/2000/svg">
<path d="M0.75 6.57245C0.75 5.88301 0.885795 5.20032 1.14963 4.56336C1.41347 3.9264 1.80018 3.34765 2.28769 2.86014C2.7752 2.37263 3.35395 1.98592 3.99091 1.72208C4.62787 1.45824 5.31056 1.32245 6 1.32245C6.68944 1.32245 7.37213 1.45824 8.00909 1.72208C8.64605 1.98592 9.2248 2.37263 9.71231 2.86014C10.1998 3.34765 10.5865 3.9264 10.8504 4.56336C11.1142 5.20032 11.25 5.88301 11.25 6.57245C11.25 7.96484 10.6969 9.30019 9.71231 10.2848C8.72774 11.2693 7.39239 11.8224 6 11.8224C4.60761 11.8224 3.27226 11.2693 2.28769 10.2848C1.30312 9.30019 0.75 7.96484 0.75 6.57245ZM6 0.572449C4.4087 0.572449 2.88258 1.20459 1.75736 2.32981C0.632141 3.45503 0 4.98115 0 6.57245C0 8.16375 0.632141 9.68987 1.75736 10.8151C2.88258 11.9403 4.4087 12.5724 6 12.5724C7.5913 12.5724 9.11742 11.9403 10.2426 10.8151C11.3679 9.68987 12 8.16375 12 6.57245C12 4.98115 11.3679 3.45503 10.2426 2.32981C9.11742 1.20459 7.5913 0.572449 6 0.572449ZM5.52225 3.6812C5.45035 3.6116 5.3542 3.57268 5.25412 3.57268C5.15405 3.57268 5.0579 3.6116 4.986 3.6812C4.95091 3.71525 4.92302 3.75599 4.90397 3.80102C4.88492 3.84604 4.87511 3.89443 4.87511 3.94332C4.87511 3.99221 4.88492 4.04061 4.90397 4.08563C4.92302 4.13066 4.95091 4.1714 4.986 4.20545C5.30335 4.5129 5.55568 4.88099 5.728 5.28787C5.90032 5.69474 5.98911 6.13209 5.98911 6.57395C5.98911 7.01581 5.90032 7.45316 5.728 7.86003C5.55568 8.2669 5.30335 8.635 4.986 8.94245C4.95091 8.97649 4.92302 9.01724 4.90397 9.06227C4.88492 9.10729 4.87511 9.15568 4.87511 9.20457C4.87511 9.25346 4.88492 9.30186 4.90397 9.34688C4.92302 9.39191 4.95091 9.43265 4.986 9.4667C5.0579 9.5363 5.15405 9.57522 5.25412 9.57522C5.3542 9.57522 5.45035 9.5363 5.52225 9.4667C5.90987 9.09121 6.21806 8.64164 6.42854 8.14471C6.63901 7.64778 6.74747 7.11362 6.74747 6.57395C6.74747 6.03428 6.63901 5.50012 6.42854 5.00319C6.21806 4.50626 5.90987 4.05669 5.52225 3.6812ZM3.10875 4.43345C3.14273 4.39838 3.18341 4.37051 3.22838 4.35147C3.27334 4.33243 3.32167 4.32262 3.3705 4.32262C3.41933 4.32262 3.46766 4.33243 3.51262 4.35147C3.55759 4.37051 3.59827 4.39838 3.63225 4.43345C4.78575 5.6147 4.78575 7.52945 3.63225 8.70995C3.59827 8.74501 3.55759 8.77289 3.51262 8.79193C3.46766 8.81097 3.41933 8.82078 3.3705 8.82078C3.32167 8.82078 3.27334 8.81097 3.22838 8.79193C3.18341 8.77289 3.14273 8.74501 3.10875 8.70995C3.03932 8.63796 3.00053 8.54184 3.00053 8.44182C3.00053 8.34181 3.03932 8.24569 3.10875 8.1737C3.52458 7.74423 3.75707 7.16987 3.75707 6.57207C3.75707 5.97428 3.52458 5.39992 3.10875 4.97045C3.0391 4.89842 3.00016 4.80215 3.00016 4.70195C3.00016 4.60175 3.0391 4.50548 3.10875 4.43345ZM7.40625 2.9297C7.33232 2.86112 7.23521 2.82301 7.13437 2.82301C7.03354 2.82301 6.93642 2.86112 6.8625 2.9297C6.82707 2.96269 6.79881 3.00262 6.77949 3.04701C6.76016 3.09139 6.75019 3.13929 6.75019 3.1877C6.75019 3.23611 6.76016 3.284 6.77949 3.32839C6.79881 3.37278 6.82707 3.41271 6.8625 3.4457C8.68275 5.1722 8.68275 7.97195 6.8625 9.69845C6.7125 9.84095 6.7125 10.0719 6.8625 10.2152C7.0125 10.3584 7.25625 10.3577 7.407 10.2152C9.52725 8.20295 9.52725 4.9412 7.407 2.9297" fill="#595959"/>
</svg>
