<svg width="10" height="8" viewBox="0 0 10 8" fill="none" xmlns="http://www.w3.org/2000/svg">
<path d="M6.52004 6.43629C5.97487 6.8182 5.42912 7.09681 5.00009 7.23289C3.6497 6.80458 1.14185 4.96314 1.14185 2.93757C1.14185 1.81889 2.09194 0.911988 3.26388 0.911988C3.98151 0.911988 4.61619 1.2521 5.00009 1.77267C5.19576 1.50662 5.45571 1.2895 5.75794 1.13968C6.06016 0.989859 6.39575 0.911758 6.7363 0.911988C7.90824 0.911988 8.85833 1.81889 8.85833 2.93757C8.85833 3.25926 8.79505 3.57617 8.68336 3.88351" stroke="#595959" stroke-linecap="round" stroke-linejoin="round"/>
<path d="M5.57886 4.96314H6.35051L6.92924 4.22656L7.50798 5.69971L8.07938 4.96314H8.85836" stroke="#595959" stroke-linecap="round" stroke-linejoin="round"/>
</svg>
