<svg width="15" height="15" viewBox="0 0 15 15" fill="none" xmlns="http://www.w3.org/2000/svg">
<path d="M7.3996 0.866272C7.59012 0.866297 7.774 0.936242 7.91637 1.06284C8.05874 1.18944 8.14969 1.36389 8.17198 1.55309L8.17743 1.6441V14.0893C8.17721 14.2876 8.10129 14.4782 7.9652 14.6224C7.8291 14.7666 7.6431 14.8533 7.44519 14.8649C7.24727 14.8766 7.0524 14.8122 6.90037 14.6849C6.74834 14.5577 6.65064 14.3772 6.62722 14.1803L6.62178 14.0893V1.6441C6.62178 1.43781 6.70372 1.23996 6.8496 1.09409C6.99547 0.948221 7.19331 0.866272 7.3996 0.866272ZM4.2883 3.19975C4.49459 3.19975 4.69243 3.2817 4.8383 3.42757C4.98417 3.57344 5.06612 3.77128 5.06612 3.97757V11.7558C5.06612 11.9621 4.98417 12.16 4.8383 12.3058C4.69243 12.4517 4.49459 12.5337 4.2883 12.5337C4.08201 12.5337 3.88416 12.4517 3.73829 12.3058C3.59242 12.16 3.51047 11.9621 3.51047 11.7558V3.97757C3.51047 3.77128 3.59242 3.57344 3.73829 3.42757C3.88416 3.2817 4.08201 3.19975 4.2883 3.19975ZM10.5109 3.19975C10.7172 3.19975 10.915 3.2817 11.0609 3.42757C11.2068 3.57344 11.2887 3.77128 11.2887 3.97757V11.7558C11.2887 11.9621 11.2068 12.16 11.0609 12.3058C10.915 12.4517 10.7172 12.5337 10.5109 12.5337C10.3046 12.5337 10.1068 12.4517 9.9609 12.3058C9.81503 12.16 9.73308 11.9621 9.73308 11.7558V3.97757C9.73308 3.77128 9.81503 3.57344 9.9609 3.42757C10.1068 3.2817 10.3046 3.19975 10.5109 3.19975ZM1.177 5.53323C1.38329 5.53323 1.58113 5.61518 1.727 5.76105C1.87287 5.90692 1.95482 6.10476 1.95482 6.31105V9.42235C1.95482 9.62865 1.87287 9.82649 1.727 9.97236C1.58113 10.1182 1.38329 10.2002 1.177 10.2002C0.970703 10.2002 0.77286 10.1182 0.62699 9.97236C0.481119 9.82649 0.39917 9.62865 0.39917 9.42235V6.31105C0.39917 6.10476 0.481119 5.90692 0.62699 5.76105C0.77286 5.61518 0.970703 5.53323 1.177 5.53323ZM13.6222 5.53323C13.8127 5.53325 13.9966 5.6032 14.139 5.72979C14.2813 5.85639 14.3723 6.03084 14.3946 6.22005L14.4 6.31105V9.42235C14.3998 9.62061 14.3239 9.81129 14.1878 9.95545C14.0517 10.0996 13.8657 10.1864 13.6678 10.198C13.4699 10.2096 13.275 10.1452 13.123 10.018C12.9709 9.89072 12.8732 9.71022 12.8498 9.51336L12.8444 9.42235V6.31105C12.8444 6.10476 12.9263 5.90692 13.0722 5.76105C13.2181 5.61518 13.4159 5.53323 13.6222 5.53323Z" fill="#595959"/>
</svg>
