<svg width="11" height="11" viewBox="0 0 11 11" fill="none" xmlns="http://www.w3.org/2000/svg">
<path d="M2.26271 8.64632H8.71443M3.57157 9.93204H7.42871M1.96443 0.932037H9.03585C9.37685 0.932037 9.70387 1.0675 9.94499 1.30861C10.1861 1.54973 10.3216 1.87676 10.3216 2.21775V6.10639C10.3215 6.43065 10.1989 6.74292 9.97839 6.98063C9.75785 7.21833 9.45563 7.36393 9.13228 7.38825L9.03071 7.39211L1.95928 7.36511C1.61918 7.36375 1.29347 7.22769 1.05347 6.98672C0.813461 6.74575 0.678708 6.4195 0.678711 6.07939V2.21775C0.678711 1.87676 0.81417 1.54973 1.05529 1.30861C1.29641 1.0675 1.62343 0.932037 1.96443 0.932037Z" stroke="#595959" stroke-linecap="round" stroke-linejoin="round"/>
</svg>
