<svg width="12" height="11" viewBox="0 0 12 11" fill="none" xmlns="http://www.w3.org/2000/svg">
<path d="M4.21299 8.06353C4.21299 8.89688 3.54589 9.57245 2.72419 9.57245C1.90143 9.57245 1.23486 8.89688 1.23486 8.06353C1.23486 7.23072 1.90196 6.55515 2.72419 6.55515C3.54642 6.55515 4.21299 7.23019 4.21299 8.06353ZM4.21299 8.06353V1.61067C4.21299 1.33536 4.42159 1.10558 4.69425 1.08069L10.1872 0.574546C10.2607 0.567993 10.3348 0.576837 10.4046 0.600514C10.4745 0.624191 10.5387 0.662179 10.593 0.712053C10.6474 0.761927 10.6907 0.822589 10.7203 0.890166C10.7499 0.957743 10.7651 1.03075 10.7649 1.10452V7.45997M10.7649 7.45997C10.7649 8.29278 10.0978 8.96888 9.27606 8.96888C8.4533 8.96888 7.78673 8.29278 7.78673 7.45997C7.78673 6.62662 8.45383 5.95105 9.27606 5.95105C10.0983 5.95105 10.7649 6.62662 10.7649 7.45997Z" stroke="#595959" stroke-linecap="round" stroke-linejoin="round"/>
</svg>
