<svg width="14" height="14" viewBox="0 0 14 14" fill="none" xmlns="http://www.w3.org/2000/svg">
<path fill-rule="evenodd" clip-rule="evenodd" d="M4.18692 1.17065C3.38696 1.17065 2.61976 1.48844 2.0541 2.0541C1.48844 2.61976 1.17065 3.38696 1.17065 4.18692V9.81295C1.17065 10.6129 1.48844 11.3801 2.0541 11.9458C2.61976 12.5114 3.38696 12.8292 4.18692 12.8292H9.81295C10.6129 12.8292 11.3801 12.5114 11.9458 11.9458C12.5114 11.3801 12.8292 10.6129 12.8292 9.81295V4.18692C12.8292 3.38696 12.5114 2.61976 11.9458 2.0541C11.3801 1.48844 10.6129 1.17065 9.81295 1.17065H4.18692ZM1.34699 1.34699C2.10019 0.593796 3.12174 0.170654 4.18692 0.170654H9.81295C10.8781 0.170654 11.8997 0.593796 12.6529 1.34699C13.4061 2.10019 13.8292 3.12174 13.8292 4.18692V9.81295C13.8292 10.8781 13.4061 11.8997 12.6529 12.6529C11.8997 13.4061 10.8781 13.8292 9.81295 13.8292H4.18692C3.12174 13.8292 2.10019 13.4061 1.34699 12.6529C0.593796 11.8997 0.170654 10.8781 0.170654 9.81295V4.18692C0.170654 3.12174 0.593796 2.10019 1.34699 1.34699ZM4.65728 4.65728C5.27859 4.03597 6.12127 3.68692 6.99994 3.68692C7.8786 3.68692 8.72128 4.03597 9.34259 4.65728C9.9639 5.27859 10.313 6.12127 10.313 6.99994C10.313 7.8786 9.9639 8.72128 9.34259 9.34259C8.72128 9.9639 7.8786 10.313 6.99994 10.313C6.12127 10.313 5.27859 9.9639 4.65728 9.34259C4.03597 8.72128 3.68692 7.8786 3.68692 6.99994C3.68692 6.12127 4.03597 5.27859 4.65728 4.65728ZM6.99994 4.68692C6.38649 4.68692 5.79816 4.93061 5.36439 5.36439C4.93061 5.79816 4.68692 6.38649 4.68692 6.99994C4.68692 7.61339 4.93061 8.20171 5.36439 8.63548C5.79816 9.06926 6.38649 9.31295 6.99994 9.31295C7.61339 9.31295 8.20171 9.06926 8.63548 8.63548C9.06926 8.20171 9.31295 7.61339 9.31295 6.99994C9.31295 6.38649 9.06926 5.79816 8.63548 5.36439C8.20171 4.93061 7.61339 4.68692 6.99994 4.68692ZM11.2456 3.46769C11.4314 3.26336 11.4163 2.94714 11.212 2.76139C11.0077 2.57563 10.6914 2.59069 10.5057 2.79502L10.4979 2.80362C10.3121 3.00795 10.3272 3.32417 10.5315 3.50993C10.7358 3.69568 11.052 3.68062 11.2378 3.47629L11.2456 3.46769Z" fill="#949494" fill-opacity="0.52"/>
</svg>
