<svg width="10" height="10" viewBox="0 0 10 10" fill="none" xmlns="http://www.w3.org/2000/svg">
<path d="M0.37777 9.07533C0.182508 9.27059 0.182508 9.58717 0.37777 9.78243C0.573032 9.97769 0.889614 9.97769 1.08488 9.78243L0.37777 9.07533ZM9.76877 0.891434C9.76877 0.615291 9.54491 0.391434 9.26877 0.391434L4.76877 0.391434C4.49263 0.391434 4.26877 0.615292 4.26877 0.891434C4.26877 1.16758 4.49263 1.39143 4.76877 1.39143L8.76877 1.39143L8.76877 5.39143C8.76877 5.66758 8.99263 5.89143 9.26877 5.89143C9.54491 5.89143 9.76877 5.66758 9.76877 5.39143L9.76877 0.891434ZM1.08488 9.78243L9.62232 1.24499L8.91521 0.537881L0.37777 9.07533L1.08488 9.78243Z" fill="#949494" fill-opacity="0.52"/>
</svg>
