<svg width="10" height="11" viewBox="0 0 10 11" fill="none" xmlns="http://www.w3.org/2000/svg">
<path d="M1.78092 0.536255C1.02433 0.536255 0.43261 1.0456 0.506191 1.6337L1.60082 10.3814C1.62854 10.6028 1.86696 10.7718 2.15191 10.7718C2.43687 10.7718 2.67529 10.6028 2.703 10.3814L3.79764 1.6337C3.87122 1.0456 3.2795 0.536255 2.52291 0.536255H1.78092Z" fill="#3064E8"/>
<path d="M7.43424 0.536255C6.67765 0.536255 6.08594 1.0456 6.15952 1.6337L7.25415 10.3814C7.28186 10.6028 7.52029 10.7718 7.80524 10.7718C8.0902 10.7718 8.32862 10.6028 8.35633 10.3814L9.45097 1.6337C9.52455 1.0456 8.93283 0.536255 8.17624 0.536255H7.43424Z" fill="#3064E8"/>
</svg>
