<svg width="11" height="9" viewBox="0 0 11 9" fill="none" xmlns="http://www.w3.org/2000/svg">
<path d="M5.49995 5.91153C5.86594 5.91153 6.17695 5.78332 6.43298 5.5269C6.68902 5.27086 6.81704 4.96005 6.81704 4.59444C6.81704 4.22884 6.68883 3.91802 6.43241 3.66198C6.17599 3.40595 5.86518 3.27774 5.49995 3.27736C5.13473 3.27698 4.82391 3.40519 4.56749 3.66198C4.31108 3.91878 4.18287 4.2296 4.18287 4.59444C4.18287 4.95928 4.31108 5.27029 4.56749 5.52747C4.82391 5.78465 5.13473 5.91267 5.49995 5.91153ZM8.30304 7.00206C8.59559 6.66537 8.81625 6.2912 8.965 5.87957C9.11375 5.46793 9.18794 5.03956 9.18756 4.59444C9.18718 4.14933 9.11299 3.72095 8.965 3.30932C8.81625 2.8973 8.59559 2.52314 8.30304 2.18683L7.89901 2.59028C8.13108 2.87371 8.30855 3.18701 8.43143 3.53016C8.5547 3.8737 8.61633 4.22846 8.61633 4.59444C8.61633 4.96043 8.55489 5.315 8.432 5.65815C8.30912 6.00131 8.13146 6.3146 7.89901 6.59803L8.30304 7.00206ZM2.69744 7.00206L3.1009 6.59803C2.86883 6.31498 2.69116 6.00169 2.5679 5.65815C2.44464 5.31462 2.3832 4.96005 2.38358 4.59444C2.38396 4.22884 2.44559 3.87408 2.56847 3.53016C2.69174 3.18701 2.8694 2.87371 3.10147 2.59028L2.69744 2.18683C2.40488 2.52314 2.18423 2.8973 2.03548 3.30932C1.88672 3.72133 1.81254 4.14971 1.81292 4.59444C1.8133 5.03918 1.88749 5.46755 2.03548 5.87957C2.18423 6.2912 2.40488 6.66537 2.69744 7.00206ZM1.28677 8.58906C1.03112 8.58906 0.813504 8.49928 0.633936 8.31971C0.454368 8.14014 0.364394 7.92272 0.364014 7.66745V1.52144C0.364014 1.26654 0.453797 1.04912 0.633365 0.869175C0.812933 0.689607 1.03054 0.599823 1.2862 0.599823H9.71428C9.96917 0.599823 10.1866 0.689607 10.3665 0.869175C10.5461 1.04874 10.6359 1.26635 10.6359 1.52201V7.66745C10.6359 7.92234 10.5461 8.13976 10.3665 8.31971C10.187 8.49928 9.96955 8.58906 9.71428 8.58906H1.28677ZM1.28677 8.0184H9.71485C9.81719 8.0184 9.90126 7.98549 9.96708 7.91968C10.0329 7.85386 10.0658 7.76978 10.0658 7.66745V1.52144C10.0658 1.4191 10.0329 1.33502 9.96708 1.26921C9.90126 1.20339 9.817 1.17048 9.71428 1.17048H1.28563C1.18329 1.17048 1.09921 1.20339 1.0334 1.26921C0.967582 1.33502 0.934674 1.41929 0.934674 1.52201V7.66745C0.934674 7.76978 0.967582 7.85386 1.0334 7.91968C1.09921 7.98549 1.18405 8.0184 1.28677 8.0184Z" fill="#595959"/>
</svg>
