<svg width="164" height="58" viewBox="0 0 164 58" fill="none" xmlns="http://www.w3.org/2000/svg">
<g filter="url(#filter0_b_124_250)">
<rect x="1" y="1.26074" width="162" height="56" rx="28" fill="url(#paint0_linear_124_250)"/>
<rect x="1" y="1.26074" width="162" height="56" rx="28" stroke="black" stroke-opacity="0.09"/>
<path fill-rule="evenodd" clip-rule="evenodd" d="M29 46.7607C27.2928 46.7607 25.6024 46.3727 24.0251 45.6189C22.4479 44.8651 21.0148 43.7602 19.8076 42.3673C18.6005 40.9744 17.6429 39.3209 16.9896 37.501C16.3363 35.6811 16 33.7305 16 31.7607C16 26.4564 18.1071 21.3693 21.8579 17.6186C25.6086 13.8679 30.6957 11.7607 36 11.7607C41.3043 11.7607 46.3914 13.8679 50.1421 17.6186C53.8929 21.3693 56 26.4564 56 31.7607C56 33.7305 55.6637 35.6811 55.0104 37.501C54.3571 39.3209 53.3995 40.9744 52.1924 42.3673C50.9852 43.7602 49.5521 44.8651 47.9749 45.6189C46.3976 46.3727 44.7072 46.7607 43 46.7607H29ZM24.6863 20.447C27.6869 17.4465 31.7565 15.7607 36 15.7607C40.2435 15.7607 44.3131 17.4465 47.3137 20.447C50.3143 23.4476 52 27.5172 52 31.7607C52 33.2786 51.7404 34.7714 51.2457 36.1495C50.751 37.5275 50.0376 38.7461 49.1696 39.7476C48.3026 40.748 47.3045 41.5059 46.25 42.0099C45.1981 42.5127 44.0957 42.7607 43 42.7607H29C27.9043 42.7607 26.8019 42.5127 25.75 42.0099C24.6955 41.5059 23.6974 40.748 22.8304 39.7476C21.9624 38.7461 21.249 37.5275 20.7543 36.1495C20.2596 34.7714 20 33.2786 20 31.7607C20 27.5172 21.6857 23.4476 24.6863 20.447ZM41 41.7607C42.3132 41.7607 43.6136 41.502 44.8268 40.9995C46.0401 40.4969 47.1425 39.7604 48.0711 38.8318C48.9997 37.9032 49.7362 36.8008 50.2388 35.5875C50.7413 34.3743 51 33.0739 51 31.7607C51 27.7825 49.4196 23.9671 46.6066 21.1541C43.7936 18.3411 39.9782 16.7607 36 16.7607C32.0218 16.7607 28.2064 18.3411 25.3934 21.1541C22.5803 23.9671 21 27.7825 21 31.7607C21 33.0739 21.2587 34.3743 21.7612 35.5875C22.2638 36.8008 23.0003 37.9032 23.9289 38.8318C24.8575 39.7604 25.9599 40.4969 27.1732 40.9995C28.3864 41.502 29.6868 41.7607 31 41.7607H41ZM36 20.7607C33.0826 20.7607 30.2847 21.9196 28.2218 23.9825C26.1589 26.0454 25 28.8433 25 31.7607C25 32.5486 25.1552 33.3288 25.4567 34.0568C25.7583 34.7848 26.2002 35.4462 26.7574 36.0033C27.3145 36.5605 27.9759 37.0024 28.7039 37.304C29.4319 37.6055 30.2121 37.7607 31 37.7607H41C41.7879 37.7607 42.5681 37.6055 43.2961 37.304C44.0241 37.0024 44.6855 36.5605 45.2426 36.0033C45.7998 35.4462 46.2417 34.7848 46.5433 34.0568C46.8448 33.3288 47 32.5486 47 31.7607C47 28.8433 45.8411 26.0454 43.7782 23.9825C41.7153 21.9196 38.9174 20.7607 36 20.7607ZM35.9956 36.7607H41C41.6566 36.7607 42.3068 36.6314 42.9134 36.3801C43.52 36.1288 44.0712 35.7605 44.5355 35.2962C44.9998 34.8319 45.3681 34.2807 45.6194 33.6741C45.8707 33.0675 46 32.4173 46 31.7607C46 29.1085 44.9464 26.565 43.0711 24.6896C41.1957 22.8143 38.6522 21.7607 36 21.7607C33.3478 21.7607 30.8043 22.8143 28.9289 24.6896C27.0536 26.565 26 29.1085 26 31.7607C26 32.4173 26.1293 33.0675 26.3806 33.6741C26.6319 34.2807 27.0002 34.8319 27.4645 35.2962C27.9288 35.7605 28.48 36.1288 29.0866 36.3801C29.6932 36.6314 30.3434 36.7607 31 36.7607H32.6834L32.6666 36.7495C31.6799 36.0902 30.9109 35.1532 30.4567 34.0568C30.1537 33.3253 30 32.5448 30 31.7607C30 31.6115 30.0056 31.4629 30.0166 31.3151C30.0459 30.9211 30.1139 30.5331 30.2185 30.1563C30.3099 29.8267 30.4294 29.5058 30.5753 29.197C30.8672 28.5794 31.2651 28.0103 31.7574 27.5181C31.8277 27.4477 31.8996 27.3793 31.973 27.3129C32.3255 26.9937 32.7123 26.7197 33.1243 26.4947C33.484 26.2983 33.8629 26.1392 34.255 26.0201C34.6535 25.8989 35.0657 25.8189 35.485 25.7828C35.6556 25.7681 35.8274 25.7607 36 25.7607C37.5913 25.7607 39.1174 26.3928 40.2426 27.5181C41.3679 28.6433 42 30.1694 42 31.7607C42 31.892 41.9741 32.0221 41.9239 32.1434C41.8736 32.2647 41.8 32.3749 41.7071 32.4678C41.6142 32.5607 41.504 32.6343 41.3827 32.6846C41.2614 32.7348 41.1313 32.7607 41 32.7607H36C35.8022 32.7607 35.6089 32.7021 35.4444 32.5922C35.28 32.4823 35.1518 32.3261 35.0761 32.1434C35.0004 31.9607 34.9806 31.7596 35.0192 31.5656C35.0578 31.3716 35.153 31.1934 35.2929 31.0536C35.4327 30.9137 35.6109 30.8185 35.8049 30.7799C35.9989 30.7413 36.2 30.7611 36.3827 30.8368C36.5654 30.9125 36.7216 31.0407 36.8315 31.2051C36.9414 31.3696 37 31.5629 37 31.7607H41C41 30.7718 40.7068 29.8051 40.1573 28.9828C39.6079 28.1606 38.827 27.5197 37.9134 27.1413C37.3038 26.8888 36.6535 26.7607 36 26.7607C35.7047 26.7607 35.4087 26.7869 35.1156 26.8395C35.0852 26.845 35.0549 26.8507 35.0245 26.8568C34.0546 27.0497 33.1637 27.5259 32.4645 28.2252C31.7652 28.9244 31.289 29.8153 31.0961 30.7852C30.9657 31.4406 30.9686 32.1122 31.101 32.7607C31.1645 33.0719 31.2579 33.3778 31.3806 33.6741C31.759 34.5878 32.3999 35.3686 33.2222 35.918C33.7637 36.2799 34.368 36.5307 35 36.6597C35.3261 36.7262 35.6596 36.7604 35.9956 36.7607Z" fill="#3064E8"/>
<path d="M79.63 15.7607C80.185 15.7607 80.65 16.2257 80.65 16.7807V19.7057H78.025V19.0307C78.025 18.6707 77.74 18.3857 77.38 18.3857H70.15V23.6357H78.025V21.9557L76.705 21.0107H80.65V26.2607H67.525V15.7607H79.63ZM86.51 26.2607H83.885V15.7607H86.51V26.2607ZM89.4263 15.7607H102.551V18.3857H102.536L95.0213 23.6357H102.551V26.2607H89.4263V24.3557L90.4463 23.6357L97.9463 18.3857H89.4263V15.7607ZM116.016 15.7607H118.656V18.3857H118.641V26.2607H116.016V19.4207L113.436 22.0007H110.676L108.156 19.4807V26.2607H105.531V18.3857V15.7607H108.156V15.7757L110.766 18.3857L112.056 19.6757L113.331 18.3857L115.956 15.7607L116.016 15.7007V15.7607ZM134.76 18.3857C134.805 18.6407 134.85 18.8957 134.85 19.1657V22.8707C134.85 23.1257 134.82 23.3807 134.76 23.6207C134.76 23.6357 134.76 23.6357 134.76 23.6357C134.46 24.8957 133.47 25.8857 132.225 26.1857C132.075 26.2157 131.94 26.2307 131.79 26.2457C131.685 26.2607 131.565 26.2607 131.445 26.2607H125.115C124.995 26.2607 124.875 26.2607 124.77 26.2457C124.62 26.2307 124.485 26.2157 124.35 26.1857C123.09 25.8857 122.1 24.8957 121.8 23.6357C121.785 23.5457 121.77 23.4557 121.755 23.3657C121.725 23.2007 121.725 23.0357 121.725 22.8707V19.1657C121.725 19.0007 121.725 18.8357 121.755 18.6707C121.77 18.5807 121.785 18.4907 121.8 18.3857C122.1 17.1407 123.09 16.1507 124.35 15.8507C124.35 15.8507 124.365 15.8507 124.38 15.8507C124.62 15.7907 124.86 15.7607 125.115 15.7607H131.445C131.715 15.7607 131.97 15.8057 132.225 15.8507C133.47 16.1507 134.46 17.1407 134.76 18.3857ZM125.355 23.6357H131.205C131.76 23.6357 132.225 23.1857 132.225 22.6307V19.4057C132.225 18.8507 131.76 18.3857 131.205 18.3857H125.355C124.8 18.3857 124.35 18.8507 124.35 19.4057V22.6307C124.35 23.1857 124.8 23.6357 125.355 23.6357Z" fill="#3064E8"/>
<path d="M68.504 36.9247C68.504 35.4367 69.704 34.4287 71.492 34.4287C73.148 34.4287 74.216 35.3527 74.312 36.8527H73.124C73.064 35.9887 72.452 35.4847 71.48 35.4847C70.388 35.4847 69.68 36.0367 69.68 36.8887C69.68 37.5847 70.076 38.0047 70.892 38.1967L72.32 38.5327C73.736 38.8567 74.456 39.6247 74.456 40.8487C74.456 42.4087 73.244 43.4047 71.396 43.4047C69.632 43.4047 68.456 42.4807 68.384 40.9927H69.584C69.608 41.8207 70.304 42.3487 71.396 42.3487C72.548 42.3487 73.28 41.8087 73.28 40.9447C73.28 40.2607 72.908 39.8287 72.08 39.6367L70.652 39.3127C69.236 38.9887 68.504 38.1727 68.504 36.9247ZM77.1098 43.2607H75.9338V34.5847H77.1098V38.3167H81.4058V34.5847H82.5818V43.2607H81.4058V39.4087H77.1098V43.2607ZM92.4179 38.9167C92.4179 41.5567 90.6899 43.4047 88.2299 43.4047C85.7819 43.4047 84.0779 41.5567 84.0779 38.9167C84.0779 36.2887 85.7939 34.4287 88.2419 34.4287C90.7019 34.4287 92.4179 36.2767 92.4179 38.9167ZM91.1819 38.9167C91.1819 36.9007 90.0059 35.5687 88.2419 35.5687C86.4779 35.5687 85.3139 36.9007 85.3139 38.9167C85.3139 40.9327 86.4779 42.2767 88.2419 42.2767C90.0059 42.2767 91.1819 40.9207 91.1819 38.9167ZM95.3811 43.2607L92.8011 34.5847H94.0251L95.6091 39.8887C95.7291 40.3447 95.8491 40.8007 95.9691 41.4607C96.1131 40.7647 96.2451 40.3447 96.3771 39.8887L98.0211 34.5847H99.2931L100.925 39.8887C101.069 40.3567 101.189 40.8127 101.321 41.4607C101.465 40.7287 101.585 40.2847 101.705 39.9007L103.301 34.5847H104.501L101.885 43.2607H100.757L98.6571 36.3967L96.5331 43.2607H95.3811ZM108.995 43.3927C106.523 43.3927 104.879 41.6167 104.879 38.9287C104.879 36.2527 106.571 34.4407 109.055 34.4407C111.011 34.4407 112.511 35.6047 112.835 37.3807H111.575C111.251 36.2527 110.279 35.5687 109.019 35.5687C107.267 35.5687 106.115 36.8887 106.115 38.9167C106.115 40.9447 107.267 42.2647 109.019 42.2647C110.291 42.2647 111.299 41.5807 111.623 40.5127H112.871C112.499 42.2407 110.951 43.3927 108.995 43.3927ZM114.345 43.2607H113.121L116.289 34.5847H117.597L120.777 43.2607H119.541L118.761 41.1007H115.113L114.345 43.2607ZM116.793 36.4567L115.473 40.0807H118.413L117.081 36.4567C117.021 36.2887 116.961 36.0847 116.937 35.9527C116.913 36.0727 116.853 36.2767 116.793 36.4567ZM121.426 36.9247C121.426 35.4367 122.626 34.4287 124.414 34.4287C126.07 34.4287 127.138 35.3527 127.234 36.8527H126.046C125.986 35.9887 125.374 35.4847 124.402 35.4847C123.31 35.4847 122.602 36.0367 122.602 36.8887C122.602 37.5847 122.998 38.0047 123.814 38.1967L125.242 38.5327C126.658 38.8567 127.378 39.6247 127.378 40.8487C127.378 42.4087 126.166 43.4047 124.318 43.4047C122.554 43.4047 121.378 42.4807 121.306 40.9927H122.506C122.53 41.8207 123.226 42.3487 124.318 42.3487C125.47 42.3487 126.202 41.8087 126.202 40.9447C126.202 40.2607 125.83 39.8287 125.002 39.6367L123.574 39.3127C122.158 38.9887 121.426 38.1727 121.426 36.9247ZM134.148 43.2607H128.856V34.5847H134.148V35.6647H130.032V38.3767H133.74V39.4207H130.032V42.1687H134.148V43.2607Z" fill="#7D7D7D"/>
</g>
<defs>
<filter id="filter0_b_124_250" x="-25.5" y="-25.2393" width="215" height="109" filterUnits="userSpaceOnUse" color-interpolation-filters="sRGB">
<feFlood flood-opacity="0" result="BackgroundImageFix"/>
<feGaussianBlur in="BackgroundImageFix" stdDeviation="13"/>
<feComposite in2="SourceAlpha" operator="in" result="effect1_backgroundBlur_124_250"/>
<feBlend mode="normal" in="SourceGraphic" in2="effect1_backgroundBlur_124_250" result="shape"/>
</filter>
<linearGradient id="paint0_linear_124_250" x1="82" y1="1.26074" x2="82" y2="57.2607" gradientUnits="userSpaceOnUse">
<stop stop-color="white" stop-opacity="0.08"/>
<stop offset="1" stop-color="#E1E1E1" stop-opacity="0.1"/>
</linearGradient>
</defs>
</svg>
