<svg width="364" height="49" viewBox="0 0 364 49" fill="none" xmlns="http://www.w3.org/2000/svg">
<path d="M78.332 0.799995C81.884 0.799995 84.86 3.776 84.86 7.328V26.048H68.06V21.728C68.06 19.424 66.236 17.6 63.932 17.6H17.66V26.144H0.86V0.799995H78.332ZM59.612 34.4H84.86V68H0.86V34.4H17.66V51.2H68.06V40.448L59.612 34.4ZM105.343 68H88.5425V0.799995H105.343V68ZM106.986 0.799995H190.986V17.6H190.89L190.794 17.696H161.514V17.6H106.986V0.799995ZM177.738 26.816L142.794 51.2H190.986V68H106.986V55.808L113.514 51.2L148.458 26.816H177.738ZM193.033 68V20.864L209.833 37.664V68H193.033ZM260.137 0.799995H277.033V17.6H276.937V68H260.137V24.224L243.625 40.736H225.961L209.833 24.608V24.704L193.033 7.904V0.799995H209.833V0.895994L226.537 17.6L234.793 25.856L242.953 17.6L259.753 0.799995L260.137 0.415995V0.799995ZM363.172 17.6C363.46 19.232 363.748 20.864 363.748 22.592V46.304C363.748 47.936 363.556 49.568 363.172 51.104C363.172 51.2 363.172 51.2 363.172 51.2C361.252 59.264 354.916 65.6 346.948 67.52C345.988 67.712 345.124 67.808 344.164 67.904C343.492 68 342.724 68 341.956 68H301.444C300.676 68 299.908 68 299.236 67.904C298.276 67.808 297.412 67.712 296.548 67.52C288.484 65.6 282.148 59.264 280.228 51.2C280.132 50.624 280.036 50.048 279.94 49.472C279.748 48.416 279.748 47.36 279.748 46.304V22.592C279.748 21.536 279.748 20.48 279.94 19.424C280.036 18.848 280.132 18.272 280.228 17.6C282.148 9.632 288.484 3.296 296.548 1.376C296.548 1.376 296.644 1.376 296.74 1.376C298.276 0.991999 299.812 0.799995 301.444 0.799995H341.956C343.684 0.799995 345.316 1.088 346.948 1.376C354.916 3.296 361.252 9.632 363.172 17.6ZM302.98 51.2H340.42C343.972 51.2 346.948 48.32 346.948 44.768V24.128C346.948 20.576 343.972 17.6 340.42 17.6H302.98C299.428 17.6 296.548 20.576 296.548 24.128V44.768C296.548 48.32 299.428 51.2 302.98 51.2Z" fill="white" fill-opacity="0.06"/>
</svg>
