<svg width="40" height="36" viewBox="0 0 40 36" fill="none" xmlns="http://www.w3.org/2000/svg">
<path fill-rule="evenodd" clip-rule="evenodd" d="M13 35.7607C11.2928 35.7607 9.60238 35.3727 8.02512 34.6189C6.44792 33.8651 5.0148 32.7602 3.80761 31.3673C2.60047 29.9744 1.64289 28.3209 0.989566 26.501C0.336257 24.6811 0 22.7305 0 20.7607C0 15.4564 2.10714 10.3693 5.85787 6.6186C9.60859 2.86788 14.6957 0.760742 20 0.760742C25.3043 0.760742 30.3914 2.86788 34.1421 6.6186C37.8929 10.3693 40 15.4564 40 20.7607C40 22.7305 39.6637 24.6811 39.0104 26.501C38.3571 28.3209 37.3995 29.9744 36.1924 31.3673C34.9852 32.7602 33.5521 33.8651 31.9749 34.6189C30.3976 35.3727 28.7072 35.7607 27 35.7607H13ZM8.68629 9.44703C11.6869 6.44645 15.7565 4.76074 20 4.76074C24.2435 4.76074 28.3131 6.44645 31.3137 9.44703C34.3143 12.4476 36 16.5172 36 20.7607C36 22.2786 35.7404 23.7714 35.2457 25.1495C34.751 26.5275 34.0376 27.7461 33.1696 28.7476C32.3026 29.748 31.3045 30.5059 30.25 31.0099C29.1981 31.5127 28.0957 31.7607 27 31.7607H13C11.9043 31.7607 10.8019 31.5127 9.74999 31.0099C8.69549 30.5059 7.6974 29.748 6.83037 28.7476C5.96242 27.7461 5.24903 26.5275 4.75433 25.1495C4.25961 23.7714 4 22.2786 4 20.7607C4 16.5172 5.68571 12.4476 8.68629 9.44703ZM25 30.7607C26.3132 30.7607 27.6136 30.502 28.8268 29.9995C30.0401 29.4969 31.1425 28.7604 32.0711 27.8318C32.9997 26.9032 33.7362 25.8008 34.2388 24.5875C34.7413 23.3743 35 22.0739 35 20.7607C35 16.7825 33.4196 12.9671 30.6066 10.1541C27.7936 7.34109 23.9782 5.76074 20 5.76074C16.0218 5.76074 12.2064 7.34109 9.3934 10.1541C6.58035 12.9671 5 16.7825 5 20.7607C5 22.0739 5.25866 23.3743 5.7612 24.5875C6.26375 25.8008 7.00035 26.9032 7.92893 27.8318C8.85752 28.7604 9.95991 29.4969 11.1732 29.9995C12.3864 30.502 13.6868 30.7607 15 30.7607H25ZM20 9.76074C17.0826 9.76074 14.2847 10.9196 12.2218 12.9825C10.1589 15.0454 9 17.8433 9 20.7607C9 21.5486 9.15519 22.3288 9.45672 23.0568C9.75825 23.7848 10.2002 24.4462 10.7574 25.0033C11.3145 25.5605 11.9759 26.0024 12.7039 26.304C13.4319 26.6055 14.2121 26.7607 15 26.7607H25C25.7879 26.7607 26.5681 26.6055 27.2961 26.304C28.0241 26.0024 28.6855 25.5605 29.2426 25.0033C29.7998 24.4462 30.2417 23.7848 30.5433 23.0568C30.8448 22.3288 31 21.5486 31 20.7607C31 17.8433 29.8411 15.0454 27.7782 12.9825C25.7153 10.9196 22.9174 9.76074 20 9.76074ZM19.9956 25.7607H25C25.6566 25.7607 26.3068 25.6314 26.9134 25.3801C27.52 25.1288 28.0712 24.7605 28.5355 24.2962C28.9998 23.8319 29.3681 23.2807 29.6194 22.6741C29.8707 22.0675 30 21.4173 30 20.7607C30 18.1085 28.9464 15.565 27.0711 13.6896C25.1957 11.8143 22.6522 10.7607 20 10.7607C17.3478 10.7607 14.8043 11.8143 12.9289 13.6896C11.0536 15.565 10 18.1085 10 20.7607C10 21.4173 10.1293 22.0675 10.3806 22.6741C10.6319 23.2807 11.0002 23.8319 11.4645 24.2962C11.9288 24.7605 12.48 25.1288 13.0866 25.3801C13.6932 25.6314 14.3434 25.7607 15 25.7607H16.6834L16.6666 25.7495C15.6799 25.0902 14.9109 24.1532 14.4567 23.0568C14.1537 22.3253 14 21.5448 14 20.7607C14 20.6115 14.0056 20.4629 14.0166 20.3151C14.0459 19.9211 14.1139 19.5331 14.2185 19.1563C14.3099 18.8267 14.4294 18.5058 14.5753 18.197C14.8672 17.5794 15.2651 17.0103 15.7574 16.5181C15.8277 16.4477 15.8996 16.3793 15.973 16.3129C16.3255 15.9937 16.7123 15.7197 17.1243 15.4947C17.484 15.2983 17.8629 15.1392 18.255 15.0201C18.6535 14.8989 19.0657 14.8189 19.485 14.7828C19.6556 14.7681 19.8274 14.7607 20 14.7607C21.5913 14.7607 23.1174 15.3928 24.2426 16.5181C25.3679 17.6433 26 19.1694 26 20.7607C26 20.892 25.9741 21.0221 25.9239 21.1434C25.8736 21.2647 25.8 21.3749 25.7071 21.4678C25.6142 21.5607 25.504 21.6343 25.3827 21.6846C25.2614 21.7348 25.1313 21.7607 25 21.7607H20C19.8022 21.7607 19.6089 21.7021 19.4444 21.5922C19.28 21.4823 19.1518 21.3261 19.0761 21.1434C19.0004 20.9607 18.9806 20.7596 19.0192 20.5656C19.0578 20.3716 19.153 20.1934 19.2929 20.0536C19.4327 19.9137 19.6109 19.8185 19.8049 19.7799C19.9989 19.7413 20.2 19.7611 20.3827 19.8368C20.5654 19.9125 20.7216 20.0407 20.8315 20.2051C20.9414 20.3696 21 20.5629 21 20.7607H25C25 19.7718 24.7068 18.8051 24.1573 17.9828C23.6079 17.1606 22.827 16.5197 21.9134 16.1413C21.3038 15.8888 20.6535 15.7607 20 15.7607C19.7047 15.7607 19.4087 15.7869 19.1156 15.8395C19.0852 15.845 19.0549 15.8507 19.0245 15.8568C18.0546 16.0497 17.1637 16.5259 16.4645 17.2252C15.7652 17.9244 15.289 18.8153 15.0961 19.7852C14.9657 20.4406 14.9686 21.1122 15.101 21.7607C15.1645 22.0719 15.2579 22.3778 15.3806 22.6741C15.759 23.5878 16.3999 24.3686 17.2222 24.918C17.7637 25.2799 18.368 25.5307 19 25.6597C19.3261 25.7262 19.6596 25.7604 19.9956 25.7607Z" fill="#3064E8"/>
</svg>
