<svg width="109" height="17" viewBox="0 0 109 17" fill="none" xmlns="http://www.w3.org/2000/svg">
<path d="M20.208 0.199999C21.096 0.199999 21.84 0.943999 21.84 1.832V6.512H17.64V5.432C17.64 4.856 17.184 4.4 16.608 4.4H5.04V6.536H0.84V0.199999H20.208ZM15.528 8.6H21.84V17H0.84V8.6H5.04V12.8H17.64V10.112L15.528 8.6ZM31.2159 17H27.0159V0.199999H31.2159V17ZM35.8821 0.199999H56.8821V4.4H56.8581L56.8341 4.424H49.5141V4.4H35.8821V0.199999ZM53.5701 6.704L44.8341 12.8H56.8821V17H35.8821V13.952L37.5141 12.8L46.2501 6.704H53.5701ZM61.6491 17V5.216L65.8491 9.416V17H61.6491ZM78.4251 0.199999H82.6491V4.4H82.6251V17H78.4251V6.056L74.2971 10.184H69.8811L65.8491 6.152V6.176L61.6491 1.976V0.199999H65.8491V0.223999L70.0251 4.4L72.0891 6.464L74.1291 4.4L78.3291 0.199999L78.4251 0.103999V0.199999ZM108.439 4.4C108.511 4.808 108.583 5.216 108.583 5.648V11.576C108.583 11.984 108.535 12.392 108.439 12.776C108.439 12.8 108.439 12.8 108.439 12.8C107.959 14.816 106.375 16.4 104.383 16.88C104.143 16.928 103.927 16.952 103.687 16.976C103.519 17 103.327 17 103.135 17H93.0073C92.8153 17 92.6233 17 92.4553 16.976C92.2153 16.952 91.9993 16.928 91.7833 16.88C89.7673 16.4 88.1833 14.816 87.7033 12.8C87.6793 12.656 87.6553 12.512 87.6313 12.368C87.5833 12.104 87.5833 11.84 87.5833 11.576V5.648C87.5833 5.384 87.5833 5.12 87.6313 4.856C87.6553 4.712 87.6793 4.568 87.7033 4.4C88.1833 2.408 89.7673 0.823999 91.7833 0.344C91.7833 0.344 91.8073 0.344 91.8313 0.344C92.2153 0.248 92.5993 0.199999 93.0073 0.199999H103.135C103.567 0.199999 103.975 0.271999 104.383 0.344C106.375 0.823999 107.959 2.408 108.439 4.4ZM93.3913 12.8H102.751C103.639 12.8 104.383 12.08 104.383 11.192V6.032C104.383 5.144 103.639 4.4 102.751 4.4H93.3913C92.5033 4.4 91.7833 5.144 91.7833 6.032V11.192C91.7833 12.08 92.5033 12.8 93.3913 12.8Z" fill="#3064E8"/>
</svg>
